<?xml version="1.0" encoding="UTF-8"?>
<svg width="22px" height="22px" viewBox="0 0 22 22" version="1.1" xmlns="http://www.w3.org/2000/svg" xmlns:xlink="http://www.w3.org/1999/xlink">
    <!-- Generator: Sketch 51.3 (57544) - http://www.bohemiancoding.com/sketch -->
    <title>Combined-Shape</title>
    <desc>Created with Sketch.</desc>
    <defs></defs>
    <g id="Page-1" stroke="none" stroke-width="1" fill="none" fill-rule="evenodd">
        <g id="light-mode-ic" fill="#FFFFFF" fill-rule="nonzero">
            <path d="M18.1290145,5.16734788 L16.8326521,3.87098545 L18.1290145,5.16734788 Z M16.8326521,3.87098545 C17.6968937,3.00674383 18.9932562,4.30310626 18.1290145,5.16734788 L17.4781812,5.81818122 C16.6139396,6.68242284 15.3175772,5.38606041 16.1818188,4.52181878 L16.8326521,3.87098545 L17.4834855,3.22015212 C18.3477271,2.3559105 19.6440895,3.65227293 18.7798479,4.51651455 L18.1290145,5.16734788 C17.2647729,6.0315895 15.9684105,4.73522707 16.8326521,3.87098545 Z M5.16734788,18.1290145 L3.87098545,16.8326521 L5.16734788,18.1290145 Z M5.16734788,18.1290145 L4.51651455,18.7798479 C3.65227293,19.6440895 2.3559105,18.3477271 3.22015212,17.4834855 L3.87098545,16.8326521 L4.52181878,16.1818188 C5.38606041,15.3175772 6.68242284,16.6139396 5.81818122,17.4781812 L5.16734788,18.1290145 C4.30310626,18.9932562 3.00674383,17.6968937 3.87098545,16.8326521 C4.73522707,15.9684105 6.0315895,17.2647729 5.16734788,18.1290145 Z M20.1666667,11.9166667 L20.1666667,10.0833333 L20.1666667,11.9166667 Z M20.1666667,10.0833333 C21.3888889,10.0833333 21.3888889,11.9166667 20.1666667,11.9166667 L19.25,11.9166667 C18.0277778,11.9166667 18.0277778,10.0833333 19.25,10.0833333 L20.1666667,10.0833333 L21.0833333,10.0833333 C22.3055556,10.0833333 22.3055556,11.9166667 21.0833333,11.9166667 L20.1666667,11.9166667 C18.9444444,11.9166667 18.9444444,10.0833333 20.1666667,10.0833333 Z M1.83333333,11.9166667 L1.83333333,10.0833333 L1.83333333,11.9166667 Z M1.83333333,10.0833333 C3.05555556,10.0833333 3.05555556,11.9166667 1.83333333,11.9166667 L0.91666667,11.9166667 C-0.305555556,11.9166667 -0.305555556,10.0833333 0.91666667,10.0833333 L1.83333333,10.0833333 L2.75,10.0833333 C3.97222222,10.0833333 3.97222222,11.9166667 2.75,11.9166667 L1.83333333,11.9166667 C0.61111111,11.9166667 0.61111111,10.0833333 1.83333333,10.0833333 Z M16.8326521,18.1290145 L18.1290145,16.8326521 L16.8326521,18.1290145 Z M18.1290145,16.8326521 C18.9932562,17.6968937 17.6968937,18.9932562 16.8326521,18.1290145 L16.1818188,17.4781812 C15.3175772,16.6139396 16.6139396,15.3175772 17.4781812,16.1818188 L18.1290145,16.8326521 L18.7798479,17.4834855 C19.6440895,18.3477271 18.3477271,19.6440895 17.4834855,18.7798479 L16.8326521,18.1290145 C15.9684105,17.2647729 17.2647729,15.9684105 18.1290145,16.8326521 Z M3.87098545,5.16734788 L5.16734788,3.87098545 L3.87098545,5.16734788 Z M5.16734788,3.87098545 C6.0315895,4.73522707 4.73522707,6.0315895 3.87098545,5.16734788 L3.22015212,4.51651455 C2.3559105,3.65227293 3.65227293,2.3559105 4.51651455,3.22015212 L5.16734788,3.87098545 L5.81818122,4.52181878 C6.68242284,5.38606041 5.38606041,6.68242284 4.52181878,5.81818122 L3.87098545,5.16734788 C3.00674383,4.30310626 4.30310626,3.00674383 5.16734788,3.87098545 Z M10.0833333,20.1666667 L11.9166667,20.1666667 L10.0833333,20.1666667 Z M11.9166667,20.1666667 C11.9166667,21.3888889 10.0833333,21.3888889 10.0833333,20.1666667 L10.0833333,19.25 C10.0833333,18.0277778 11.9166667,18.0277778 11.9166667,19.25 L11.9166667,20.1666667 L11.9166667,21.0833333 C11.9166667,22.3055556 10.0833333,22.3055556 10.0833333,21.0833333 L10.0833333,20.1666667 C10.0833333,18.9444444 11.9166667,18.9444444 11.9166667,20.1666667 Z M10.0833333,1.83333333 L11.9166667,1.83333333 L10.0833333,1.83333333 Z M11.9166667,1.83333333 C11.9166667,3.05555556 10.0833333,3.05555556 10.0833333,1.83333333 L10.0833333,0.91666667 C10.0833333,-0.305555556 11.9166667,-0.305555556 11.9166667,0.91666667 L11.9166667,1.83333333 L11.9166667,2.75 C11.9166667,3.97222222 10.0833333,3.97222222 10.0833333,2.75 L10.0833333,1.83333333 C10.0833333,0.61111111 11.9166667,0.61111111 11.9166667,1.83333333 Z M11,16.5 C7.96243388,16.5 5.5,14.0375661 5.5,11 C5.5,7.96243388 7.96243388,5.5 11,5.5 C14.0375661,5.5 16.5,7.96243388 16.5,11 C16.5,14.0375661 14.0375661,16.5 11,16.5 Z" id="Combined-Shape"></path>
        </g>
    </g>
</svg>