<?xml version="1.0" encoding="UTF-8"?>
<svg width="32px" height="31px" viewBox="0 0 32 31" version="1.1" xmlns="http://www.w3.org/2000/svg" xmlns:xlink="http://www.w3.org/1999/xlink">
    <!-- Generator: Sketch 61.2 (89653) - https://sketch.com -->
    <title>ic-technology-titanium</title>
    <desc>Created with Sketch.</desc>
    <g id="Page-1" stroke="none" stroke-width="1" fill="none" fill-rule="evenodd">
        <g id="Brand-Logo" transform="translate(-655.000000, -4681.000000)" fill="#252B33" fill-rule="nonzero">
            <g id="ic-technology-titanium" transform="translate(655.000000, 4681.000000)">
                <path d="M6.34819663,23.7886196 C8.54454902,25.3164131 12.2474326,27.4289815 14.4212473,28.3737202 C10.5594756,30.7082498 7.30075682,31.5270963 5.81831349,30.2446586 L5.70780267,30.1418551 L5.60402509,30.0302195 C4.6049315,28.8736942 4.88238839,26.6374031 6.15975458,23.8782399 L6.32199417,23.8025037 L6.34819663,23.7886196 Z M25.5955216,23.7628572 L25.8401968,23.8781472 C27.1160291,26.6339606 27.3943902,28.8681813 26.3996486,30.0259487 L26.2921916,30.1418551 C24.8613972,31.5726495 21.5164165,30.7617158 17.5398013,28.3493291 C19.6922102,27.4053807 23.2856069,25.3566552 25.4723795,23.8469545 L25.5955216,23.7628572 Z M15.9999938,11.3261182 C16.6032142,11.8758588 17.2043273,12.4488182 17.8026618,13.0471527 C21.095469,16.3399599 23.6792525,19.7605302 25.2590537,22.7150961 C22.7455645,24.4857766 16.8497556,27.7907317 15.9523798,27.7907317 C15.0631685,27.7907317 9.26606211,24.5456411 6.71479767,22.7630214 C8.2925129,19.7979332 10.8865242,16.357961 14.1973326,13.0471527 C14.795667,12.4488182 15.3967801,11.8758588 15.9999938,11.3261182 Z M17.2215411,2.904631 C21.2906359,0.255102183 24.5349773,-0.592293492 25.5328373,0.405566463 L25.5328373,0.405566463 L28.0489071,2.8775755 L27.8540271,2.91255409 C25.9069562,3.28512283 23.557902,4.3756052 20.9934899,6.05347588 L20.9934899,6.05347588 L19.8515186,6.800657 L20.8462883,7.73490072 L21.4465143,8.30763358 L22.0431507,8.89509632 L22.3525969,9.20718024 C28.8032782,15.7683427 32.2383441,22.7654265 30.5326806,24.47109 L30.5326806,24.47109 L27.9672915,26.9896108 L27.9115552,26.6676986 C27.1652926,22.7932796 23.6675583,17.3933404 18.5620161,12.2877983 C17.9595645,11.6853467 17.3469272,11.1006894 16.7233535,10.5323968 L16.7233535,10.5323968 L15.9999972,9.8731674 L15.2766408,10.5323968 L14.6566847,11.1061972 C14.245774,11.4924381 13.8396126,11.8861639 13.4379782,12.2877983 L13.4379782,12.2877983 L13.1195027,12.6087678 C8.05804359,17.7499361 4.6437366,23.1498278 4.0364805,26.9626913 L4.0364805,26.9626913 L4.03137403,26.9896108 L1.46050847,24.4643452 L1.3834776,24.3794577 C-0.153032328,22.5136892 3.41096389,15.440977 9.95684366,8.89509627 C10.3535094,8.49843054 10.752254,8.11192667 11.153706,7.73490072 L11.153706,7.73490072 L12.1484757,6.800657 L10.687088,5.8468108 C8.24703571,4.28597804 6.01191012,3.26959913 4.14596723,2.91255409 L4.14596723,2.91255409 L3.94975845,2.8775755 L6.46035179,0.41231124 L6.55347226,0.32948477 C6.81752951,0.120520813 7.20866787,0.00758250599 7.75552083,0.00921243123 C9.51309483,0.0145118739 12.2832597,1.19262278 15.3947583,3.31552518 L15.3947583,3.31552518 L15.999948,3.72843194 L16.605169,3.31557093 Z M31.1753439,4.44949702 L31.292035,4.55762279 C32.9095189,6.17510674 31.6653186,10.2370064 28.4780221,14.8941526 C28.2704232,14.5905866 28.0548393,14.2850887 27.8312847,13.977581 C27.7700153,11.7070155 27.5911912,9.73423771 27.294251,9.21992216 C27.0304015,8.76292144 25.7226808,7.81092596 24.0760387,6.77093857 L24.1217257,6.68882655 C24.4408345,6.12115181 24.7246544,5.5689658 24.9711912,5.03627804 C27.7521909,3.73848193 30.0094701,3.44888313 31.1753439,4.44949702 Z M7.02934952,5.03646975 C7.27569136,5.56964963 7.5593574,6.12150331 7.87826861,6.68882655 L7.89937947,6.72638838 C6.21959225,7.78367049 4.87811995,8.75640446 4.61050729,9.21992333 C4.30766463,9.74446209 4.1276805,11.7860214 4.07055487,14.1137388 C3.88151239,14.3754759 3.69891323,14.6353834 3.52228096,14.8934631 C0.401640111,10.3344683 -0.85611183,6.34639699 0.60952308,4.66309969 L0.707959345,4.55762279 L0.819300051,4.45410472 C1.98361347,3.44799538 4.2435732,3.73650125 7.02934952,5.03646975 Z M10.0172665,6.69349218 C10.150416,6.77798924 10.284189,6.86420136 10.4185394,6.95210557 C10.0100417,7.33574852 9.60321366,7.73001752 9.19748923,8.13574195 C7.70720489,9.62602653 6.36215391,11.1424814 5.18968079,12.6300608 C5.2558486,11.1731213 5.37283903,10.0473045 5.54052261,9.75686804 C5.79066643,9.3236061 7.70716822,8.0585336 9.8379135,6.8000293 L10.0172665,6.69349218 Z M21.9364448,6.72291658 C24.1192544,8.00693416 26.1090243,9.31482787 26.3642357,9.75686688 C26.5269405,10.0386799 26.6419178,11.1070024 26.7091676,12.5004082 C25.5606233,11.0555803 24.2500782,9.58331525 22.8025051,8.13574195 C22.3967806,7.73001752 21.9899526,7.33574852 21.5814549,6.95210557 C21.7002469,6.87438107 21.8185876,6.79797944 21.9364448,6.72291658 Z" id="Combined-Shape"></path>
            </g>
        </g>
    </g>
</svg>