<?xml version="1.0" encoding="UTF-8"?>
<svg width="32px" height="28px" viewBox="0 0 32 28" version="1.1" xmlns="http://www.w3.org/2000/svg" xmlns:xlink="http://www.w3.org/1999/xlink">
    <!-- Generator: Sketch 51.3 (57544) - http://www.bohemiancoding.com/sketch -->
    <title>ic-technology-xamarin</title>
    <desc>Created with Sketch.</desc>
    <defs></defs>
    <g id="Page-1" stroke="none" stroke-width="1" fill="none" fill-rule="evenodd">
        <g id="ic-technology-xamarin" fill="#252B33" fill-rule="nonzero">
            <path d="M9.23329008,0 C8.36903863,0.00180230797 7.52303388,0.484243597 7.08796407,1.22022432 L0.321221064,12.7797712 C-0.107073688,13.5177225 -0.107073688,14.4822778 0.321221064,15.2202289 L7.08796407,26.7797757 C7.52307958,27.5157624 8.36903863,27.9983329 9.23329008,28 L22.7667283,28 C23.6309798,27.9981977 24.4769383,27.5157624 24.9120539,26.7797757 L31.6787958,15.2202289 C32.1070901,14.4822778 32.107046,13.5177225 31.6787958,12.7797712 L24.9120539,1.22022432 C24.4769383,0.484243597 23.6309798,0.00166713982 22.7667283,0 L9.23329008,0 Z M9.3561067,6.76247484 C9.37469774,6.76067254 9.39419698,6.76067254 9.41284593,6.76247484 L11.7471605,6.76247484 C11.85049,6.76457753 11.9507201,6.82330266 12.0023209,6.91150752 L15.962205,13.8509659 C15.9821369,13.8852758 15.99498,13.9235025 15.9998534,13.962739 C16.0047296,13.9234936 16.0175604,13.8852637 16.0375018,13.8509659 L19.9879078,6.91150752 C20.0411459,6.82062926 20.1460711,6.76157968 20.2525026,6.76247484 L22.5868183,6.76247484 C22.7935244,6.76427716 22.9483215,7.02030975 22.851457,7.20026701 L18.9861331,14.0000015 L22.851457,20.790421 C22.9574899,20.9714118 22.7988838,21.2393155 22.5868183,21.2375343 L20.2525026,21.2375343 C20.1442111,21.2366241 20.0386655,21.1734893 19.9879078,21.0791776 L16.0375018,14.1397192 C16.0175695,14.1054094 16.0047266,14.0671794 15.9998534,14.0279463 C15.994977,14.0671884 15.982146,14.1054245 15.962205,14.1397192 L12.0023209,21.0791776 C11.9530699,21.1708218 11.8523065,21.2333528 11.7471605,21.2375343 L9.41284593,21.2375343 C9.20078014,21.2393274 9.04221692,20.9714118 9.14824982,20.790421 L13.0135725,14.0000015 L9.14824982,7.20026701 C9.05559332,7.03607692 9.16863899,6.79752069 9.3561067,6.76247484 Z" id="Shape-Copy-3"></path>
        </g>
    </g>
</svg>