<svg id="Layer_1" data-name="Layer 1" xmlns="http://www.w3.org/2000/svg" xmlns:xlink="http://www.w3.org/1999/xlink" viewBox="0 0 226.6 77.47"><defs><style>.cls-1{font-size:33.01px;fill:#191817;font-family:GothamRounded-Bold, Gotham Rounded;font-weight:700;letter-spacing:0.06em;}.cls-2{letter-spacing:0.05em;}.cls-3{letter-spacing:0.06em;}.cls-4{letter-spacing:0.04em;}.cls-5{fill:url(#linear-gradient);}</style><linearGradient id="linear-gradient" x1="11.7" y1="72.57" x2="62.34" y2="72.57" gradientUnits="userSpaceOnUse"><stop offset="0" stop-color="#e83745"/><stop offset="1" stop-color="#e83b63"/></linearGradient></defs><text class="cls-1" transform="translate(56.56 28.06)">Empe<tspan class="cls-2" x="103.91" y="0">r</tspan><tspan class="cls-3" x="119.2" y="0">or </tspan><tspan x="0" y="39.61">B</tspan><tspan class="cls-4" x="25.81" y="39.61">r</tspan><tspan x="40.77" y="39.61">ains</tspan></text><path class="cls-5" d="M11.76,59c0-.41-.06-.66-.06-.91V43.32A2.12,2.12,0,0,1,14,41c11.22,0,22.43,0,33.64,0A10.9,10.9,0,0,1,57.94,49.4a11,11,0,0,1,.29,2.36c0,4.18,0,8.36,0,12.54a5.67,5.67,0,0,1-2.44,4.85,4.71,4.71,0,0,0-1.4,1.52,1.92,1.92,0,0,0,1.14,2.72,37.42,37.42,0,0,1,4.39,2.06,5,5,0,0,1,2.36,4.38c.06,4.67,0,9.33,0,14,0,5.22-4.42,9.89-9.38,10-5.69.17-11.38.18-17.07.25a5,5,0,0,1-.73-.14l4.58-2.62q7.09-4.08,14.19-8.16a5.31,5.31,0,0,0,1.78-7.52,5.51,5.51,0,0,0-7.35-1.56c-4.06,2.36-8.17,4.63-12.23,7a4.66,4.66,0,0,1-6.41-2c-1.36-2.49-.9-5,1.47-6.43,4.05-2.39,8.15-4.68,12.22-7a5.28,5.28,0,0,0,3-5.32,4.82,4.82,0,0,0-3.49-4.49,6.43,6.43,0,0,0-5.34.81C33.7,68.91,29.78,71,25.94,73.3a4.54,4.54,0,0,1-6.81-3.69,4.27,4.27,0,0,1,2.21-4.12c3.23-1.9,6.53-3.69,9.76-5.59a27.63,27.63,0,0,0,4.53-3c1.65-1.46,1.63-4.38.27-6.4a4.93,4.93,0,0,0-5.67-1.71c-2.12,1-4.13,2.16-6.16,3.3-3.9,2.21-7.78,4.45-11.66,6.67C12.25,58.8,12.07,58.86,11.76,59Z" transform="translate(-11.7 -36.26)"/></svg>