<?xml version="1.0" encoding="UTF-8"?>
<svg width="120px" height="52px" viewBox="0 0 120 52" version="1.1" xmlns="http://www.w3.org/2000/svg" xmlns:xlink="http://www.w3.org/1999/xlink">
    <!-- Generator: Sketch 44.1 (41455) - http://www.bohemiancoding.com/sketch -->
    <title>INIC-LWS</title>
    <desc>Created with Sketch.</desc>
    <defs></defs>
    <g id="Page-1" stroke="none" stroke-width="1" fill="none" fill-rule="evenodd">
        <g id="INIC-LWS" fill-rule="nonzero" fill="#252B33">
            <path d="M0,51.3720012 L0,28.0940633 L5.0363958,28.0940633 L5.0363958,51.3720012 L0,51.3720012 Z M11.3318906,33.7562645 L11.3318906,36.2727983 C12.4369053,34.4404194 14.510079,33.7562645 16.9286017,33.7562645 C18.9301376,33.7562645 20.786934,34.4225743 22.0274693,35.7552135 C23.2680047,37.0878528 23.888263,38.8993821 23.888263,41.1898558 L23.888263,51.3720018 L18.8864843,51.3720018 L18.8864843,41.908228 C18.8864843,40.7838137 18.2746111,39.9144878 17.6804051,39.3002245 C17.0861991,38.685961 16.03209,38.3788338 14.9896234,38.3788338 C13.9471567,38.3788338 13.1078131,38.8674161 12.5346266,39.3002243 C11.9614401,39.7330324 11.4106342,40.7838137 11.4106342,41.908228 L11.410634,51.3720012 L6.29549478,51.3720012 L6.29549478,33.7562645 L11.3318906,33.7562645 Z M64.2140466,42.5481187 C64.2140466,41.1388527 63.7685502,40.0552288 62.8775442,39.2972145 C61.9865382,38.5392002 60.9631002,38.1601987 59.8072002,38.1601987 C58.6513008,38.1601987 57.6278628,38.5445383 56.7368568,39.3132288 C55.8458508,40.0819193 55.4003544,41.1708813 55.4003544,42.5801473 C55.4003544,43.9894133 55.8458508,45.0730372 56.7368568,45.8310515 C57.6278628,46.5890658 58.6513008,46.9680673 59.8072002,46.9680673 C60.9631002,46.9680673 61.9865382,46.5837277 62.8775442,45.8150372 C63.7685502,45.0463466 64.2140466,43.9573847 64.2140466,42.5481187 L64.2140466,42.5481187 Z M53.1969312,36.2727983 C54.7508022,34.5846151 56.738757,33.7562645 58.9750716,33.7562645 C61.2113862,33.7562645 63.0171456,34.3015052 64.2140466,35.9582316 L64.2140466,33.7562645 L69.2504424,33.7562645 L69.2504424,51.3720012 L64.2140466,51.3720012 L64.2140466,48.5409009 C62.9121546,50.3863683 61.1588904,51.3720012 58.9750716,51.3720012 C56.7912528,51.3720012 54.9224358,50.5331653 53.3685648,48.8554676 C51.8146938,47.17777 51.03777,45.0282522 51.03777,42.4068496 C51.03777,39.7854471 51.6430596,37.9609816 53.1969312,36.2727983 Z M38.446781,42.5481187 C38.446781,41.1388527 38.0012846,40.0552288 37.1102784,39.2972145 C36.2192722,38.5392002 35.1958346,38.1601987 34.0399346,38.1601987 C32.8840348,38.1601987 31.8605971,38.5445383 30.9695909,39.3132288 C30.0785847,40.0819193 29.6330883,41.1708813 29.6330883,42.5801473 C29.6330883,43.9894133 30.0785847,45.0730372 30.9695909,45.8310515 C31.8605971,46.5890658 32.8840348,46.9680673 34.0399346,46.9680673 C35.1958346,46.9680673 36.2192722,46.5837277 37.1102784,45.8150372 C38.0012846,45.0463466 38.446781,43.9573847 38.446781,42.5481187 L38.446781,42.5481187 Z M27.3854028,36.2727983 C28.9392738,34.5846151 30.927229,33.7562645 33.1635434,33.7562645 C35.3998578,33.7562645 37.2056176,34.3015052 38.4025182,35.9582316 L38.4025182,28.0940633 L43.4389141,28.0940633 L43.4389141,51.3720012 L38.4025182,51.3720012 L38.4025182,48.5409009 C37.1006263,50.3863683 35.3473622,51.3720012 33.1635435,51.3720012 C30.9797248,51.3720012 29.1109079,50.5331653 27.5570368,48.8554676 C26.0031658,47.17777 25.226242,45.0282522 25.226242,42.4068496 C25.226242,39.7854471 25.8315317,37.9609816 27.3854028,36.2727983 Z M47.2162109,33.1271311 C46.5111119,33.1271311 45.9151444,32.8850788 45.4282904,32.400967 C44.9414363,31.9168553 44.698013,31.3200713 44.698013,30.6105972 C44.698013,29.9011231 44.9414363,29.3043391 45.4282904,28.8202273 C45.9151444,28.3361156 46.5111119,28.0940633 47.2162109,28.0940633 C47.9213098,28.0940633 48.5172774,28.3361156 49.0041314,28.8202273 C49.4909854,29.3043391 49.7344088,29.9011231 49.7344088,30.6105972 C49.7344088,31.3200713 49.4909854,31.9168553 49.0041314,32.400967 C48.5172774,32.8850788 47.9213098,33.1271311 47.2162109,33.1271311 L47.2162109,33.1271311 Z M44.698013,51.3720012 L44.698013,33.7562644 L49.734409,33.7562644 L49.734409,51.3720012 L44.698013,51.3720012 Z M84.9891798,28.0940633 L90.0255756,28.0940633 L90.0255756,51.3720012 L84.9891798,51.3720012 L75.6879336,37.2164987 L75.6879336,51.3720012 L70.5095418,51.3720012 L70.5095418,28.0940633 L75.5459376,28.0940633 L84.9891798,43.1932664 L84.9891798,28.0940633 Z M91.2846744,51.3720012 L91.2846744,28.0940633 L96.3210702,28.0940633 L96.3210702,51.3720012 L91.2846744,51.3720012 Z M100.904405,31.3847468 C103.157298,29.1909469 105.911391,28.0940633 109.166767,28.0940633 C111.689144,28.0940633 113.931224,28.7640808 115.893073,30.104136 C117.854922,31.4441911 119.223884,33.3029494 120,35.6804666 L113.403046,35.6804666 C112.540695,34.0162045 111.160954,33.184086 109.263781,33.184086 C107.366608,33.184086 105.873685,33.7784564 104.784967,34.967215 C103.696248,36.1559735 103.151897,37.7445635 103.151897,39.7330324 C103.151897,41.7215013 103.696248,43.3100912 104.784967,44.4988498 C105.873685,45.6876084 107.366608,46.2819788 109.263781,46.2819788 C111.160954,46.2819788 112.540695,45.4498603 113.403046,43.7855983 L120,43.7855983 C119.223884,46.1631154 117.854922,48.0218737 115.893073,49.3619288 C113.931224,50.701984 111.689144,51.3720012 109.166767,51.3720012 C105.911391,51.3720012 103.157298,50.275118 100.904405,48.0813181 C98.6515128,45.8875181 97.5250836,43.104784 97.5250836,39.7330324 C97.5250836,36.3612808 98.6515128,33.5785467 100.904405,31.3847468 Z M80.6688966,13.1876067 C80.6688966,20.4688935 86.5551696,26.3752134 93.8208012,26.3752134 C101.086432,26.3752134 106.972706,20.4688935 106.972706,13.1876067 C106.972706,11.707261 105.772666,10.5072037 104.292343,10.5072037 C102.812019,10.5072037 101.611979,11.707261 101.611979,13.1876067 C101.611979,17.5122567 98.1217152,21.0144074 93.8208012,21.0144074 C89.5198866,21.0144074 86.0296224,17.5122567 86.0296224,13.1876067 C86.0296224,8.86295676 89.5198866,5.36080596 93.8208012,5.36080596 C95.3011248,5.36080596 96.5011644,4.16074866 96.5011644,2.68040298 C96.5011644,1.2000573 95.3011248,0 93.8208012,0 C86.5551696,0 80.6688966,5.9063199 80.6688966,13.1876067 Z M93.8208012,18.5779163 C96.7876824,18.5779163 99.1928154,16.1645925 99.1928154,13.1876067 C99.1928154,10.2106209 96.7876824,7.79729706 93.8208012,7.79729706 C90.8539194,7.79729706 88.4487864,10.2106209 88.4487864,13.1876067 C88.4487864,16.1645925 90.8539194,18.5779163 93.8208012,18.5779163 Z" id="Shape"></path>
        </g>
    </g>
</svg>