<?xml version="1.0" encoding="UTF-8"?>
<svg width="20px" height="19px" viewBox="0 0 20 19" version="1.1" xmlns="http://www.w3.org/2000/svg" xmlns:xlink="http://www.w3.org/1999/xlink">
    <!-- Generator: Sketch 51.3 (57544) - http://www.bohemiancoding.com/sketch -->
    <title>Shape</title>
    <desc>Created with Sketch.</desc>
    <defs></defs>
    <g id="Page-1" stroke="none" stroke-width="1" fill="none" fill-rule="evenodd">
        <g id="4" transform="translate(-84.000000, -743.000000)" fill="#252B33" fill-rule="nonzero">
            <g id="sydney-opera-house" transform="translate(84.000000, 743.000000)">
                <path d="M19.5996232,8.41795389 L17.9155924,6.88350922 L17.9155924,1.7954416 C17.9155924,1.47170184 17.6531355,1.20920594 17.3293568,1.20920594 L13.275699,1.20920594 C12.9519592,1.20920594 12.6894633,1.47166291 12.6894633,1.7954416 L12.6894633,2.12147848 L10.6556846,0.268316598 C10.2631088,-0.0894518443 9.67111088,-0.0894129098 9.27869079,0.268277664 L0.33475227,8.41799283 C0.0203178436,8.7045502 -0.08359814,9.1460666 0.0700371059,9.54276947 C0.223711286,9.93947234 0.597871122,10.1957777 1.0233076,10.1957777 L2.45177276,10.1957777 L2.45177276,18.3611445 C2.45177276,18.6848842 2.71422973,18.9473801 3.03800842,18.9473801 L7.94035883,18.9473801 C8.26409858,18.9473801 8.52659448,18.6849232 8.52659448,18.3611445 L8.52659448,13.4033904 L11.407781,13.4033904 L11.407781,18.3611834 C11.407781,18.6849232 11.6702379,18.9474191 11.9940166,18.9474191 L16.8961724,18.9474191 C17.2199121,18.9474191 17.482408,18.6849621 17.4823691,18.3611834 L17.4823691,10.1958166 L18.9111457,10.1958166 C19.3365433,10.1958166 19.710742,9.93947234 19.8644162,9.5428084 C20.0180125,9.1460666 19.9141355,8.7045502 19.5996232,8.41795389 Z M16.8961724,9.02334529 C16.5724326,9.02334529 16.3099367,9.28580225 16.3099367,9.60958094 L16.3099367,17.7749477 L12.5802912,17.7749477 L12.5802912,12.8171547 C12.5802912,12.493415 12.3177953,12.2309191 11.9940555,12.2309191 L7.94035883,12.2309191 C7.61661907,12.2309191 7.35412317,12.493376 7.35412317,12.8171547 L7.35412317,17.7749477 L3.62420514,17.7749477 L3.62420514,9.60958094 C3.62420514,9.28584119 3.36174817,9.02334529 3.03796948,9.02334529 L1.41117235,9.02334529 L9.96724612,1.22711578 L12.8809428,3.88209324 C13.0525658,4.03845389 13.3003055,4.07875102 13.512615,3.98503586 C13.7249633,3.89120389 13.8619736,3.68088012 13.8619736,3.44875307 L13.8619736,2.38167725 L16.743199,2.38167725 L16.743199,7.14242316 C16.743199,7.30738832 16.812658,7.46464447 16.9346006,7.57576332 L18.523242,9.02334529 L16.8961724,9.02334529 Z" id="Shape"></path>
            </g>
        </g>
    </g>
</svg>