<?xml version="1.0" encoding="UTF-8"?>
<svg width="19px" height="10px" viewBox="0 0 19 10" version="1.1" xmlns="http://www.w3.org/2000/svg" xmlns:xlink="http://www.w3.org/1999/xlink">
    <!-- Generator: Sketch 51.3 (57544) - http://www.bohemiancoding.com/sketch -->
    <title>XMLID_28_</title>
    <desc>Created with Sketch.</desc>
    <defs></defs>
    <g id="Page-1" stroke="none" stroke-width="1" fill="none" fill-rule="evenodd">
        <g id="navigate-arrow" fill="#FFFFFF" fill-rule="nonzero">
            <path d="M17.5,4.16666667 L2.84516667,4.16666667 L5.58922222,1.42255556 C5.91466667,1.09716667 5.91466667,0.5695 5.58922222,0.244055556 C5.26383333,-0.0813333333 4.73616667,-0.0813333333 4.41072222,0.244055556 L0.244055556,4.41072222 C-0.0813888889,4.73611111 -0.0813888889,5.26377778 0.244055556,5.58922222 L4.41072222,9.75588889 C4.5735,9.91861111 4.78672222,10 5,10 C5.21327778,10 5.42655556,9.91861111 5.58922222,9.75588889 C5.91466667,9.4305 5.91466667,8.90283333 5.58922222,8.57738889 L2.84516667,5.83333333 L17.5,5.83333333 C17.9602222,5.83333333 18.3333333,5.46022222 18.3333333,5 C18.3333333,4.53977778 17.9602222,4.16666667 17.5,4.16666667 Z" id="XMLID_28_"></path>
        </g>
    </g>
</svg>